<?xml version="1.0" encoding="UTF-8" standalone="no"?>
<!-- Created with Inkscape (http://www.inkscape.org/) -->

<svg
   width="1080"
   height="1080"
   viewBox="0 0 1080 1080"
   version="1.1"
   id="svg5"
   xml:space="preserve"
   inkscape:version="1.3 (0e150ed, 2023-07-21)"
   sodipodi:docname="icon.svg"
   inkscape:export-filename="icon.png"
   inkscape:export-xdpi="45.511112"
   inkscape:export-ydpi="45.511112"
   xmlns:inkscape="http://www.inkscape.org/namespaces/inkscape"
   xmlns:sodipodi="http://sodipodi.sourceforge.net/DTD/sodipodi-0.dtd"
   xmlns:xlink="http://www.w3.org/1999/xlink"
   xmlns="http://www.w3.org/2000/svg"
   xmlns:svg="http://www.w3.org/2000/svg"><sodipodi:namedview
     id="namedview7"
     pagecolor="#505050"
     bordercolor="#cccccc"
     borderopacity="0.10196078"
     inkscape:showpageshadow="0"
     inkscape:pageopacity="0"
     inkscape:pagecheckerboard="0"
     inkscape:deskcolor="#505050"
     inkscape:document-units="px"
     showgrid="false"
     inkscape:zoom="0.4261111"
     inkscape:cx="323.8592"
     inkscape:cy="569.1004"
     inkscape:window-width="2056"
     inkscape:window-height="1200"
     inkscape:window-x="0"
     inkscape:window-y="44"
     inkscape:window-maximized="0"
     inkscape:current-layer="g5032"
     showguides="true"><sodipodi:guide
       position="734.71807,246.13025"
       orientation="0,1"
       id="guide23"
       inkscape:locked="false"
       inkscape:label=""
       inkscape:color="rgb(0,134,229)" /><sodipodi:guide
       position="294.64513,869.85219"
       orientation="0,-1"
       id="guide24"
       inkscape:locked="false" /></sodipodi:namedview><defs
     id="defs2"><linearGradient
       id="swatch13"
       inkscape:swatch="solid"
       gradientTransform="matrix(0.9090821,0,0,0.9090821,90.602834,4.4049236)"><stop
         style="stop-color:#222c37;stop-opacity:1;"
         offset="0"
         id="stop13" /></linearGradient><linearGradient
       id="swatch2"
       inkscape:swatch="solid"
       gradientTransform="matrix(0.8418577,0,0,0.8418577,145.90948,124.46276)"><stop
         style="stop-color:#2f2f2f;stop-opacity:1;"
         offset="0"
         id="stop2" /></linearGradient><linearGradient
       id="swatch1"
       inkscape:swatch="solid"
       gradientTransform="matrix(0.75210819,0,0,0.99886794,245.53523,-15.935711)"><stop
         style="stop-color:#db4a46;stop-opacity:1;"
         offset="0"
         id="stop1" /></linearGradient><linearGradient
       id="linearGradient4075"
       inkscape:swatch="solid"
       gradientTransform="matrix(1.0558656,0,0,1.3145737,-53.507021,-60.303343)"><stop
         style="stop-color:#3092db;stop-opacity:1;"
         offset="0"
         id="stop4073" /></linearGradient><linearGradient
       id="linearGradient1632"
       inkscape:swatch="solid"><stop
         style="stop-color:#4c4c4c;stop-opacity:1;"
         offset="0"
         id="stop1630" /></linearGradient><linearGradient
       id="linearGradient1419"
       inkscape:swatch="solid"><stop
         style="stop-color:#808080;stop-opacity:1;"
         offset="0"
         id="stop1417" /></linearGradient><linearGradient
       id="linearGradient1088"
       inkscape:swatch="solid"
       gradientTransform="matrix(0.9040314,0,0,1.0391304,394.57282,-32.713738)"><stop
         style="stop-color:#000000;stop-opacity:1;"
         offset="0"
         id="stop1086" /></linearGradient><linearGradient
       id="linearGradient1082"
       inkscape:swatch="solid"
       gradientTransform="matrix(0.64573273,0,0,0.67611974,320.64718,324.50129)"><stop
         style="stop-color:#fefefe;stop-opacity:1;"
         offset="0"
         id="stop1080" /></linearGradient><clipPath
       clipPathUnits="userSpaceOnUse"
       id="clipPath5034"><use
         x="0"
         y="0"
         xlink:href="#g5030"
         id="use5036" /></clipPath></defs><g
     inkscape:label="Layer 1"
     inkscape:groupmode="layer"
     id="layer1"
     transform="matrix(1.19198,0,0,1.19198,-604.3008,-103.6692)"><g
       id="g5032"
       clip-path="url(#clipPath5034)"
       inkscape:label="Icon"><g
         inkscape:label="Clip"
         id="g5030"
         style="display:inline"><circle
           style="display:inline;fill:url(#linearGradient1082);fill-opacity:1;stroke-width:7"
           id="path4890"
           cx="960"
           cy="540"
           r="453.02774"
           inkscape:label="path4890" /></g><g
         id="g5236"
         inkscape:label="logo"
         transform="matrix(1.2383478,0,0,1.2383478,-218.21908,-138.46567)"
         style="display:inline;fill:url(#swatch13)"><g
           id="g1839"
           transform="matrix(0.82230226,0,0,0.82230226,204.07878,95.956758)"
           inkscape:label="brackets"
           style="fill:url(#swatch13)"><text
             xml:space="preserve"
             style="font-style:normal;font-variant:normal;font-weight:normal;font-stretch:normal;font-size:548.864px;font-family:'Source Code Pro';-inkscape-font-specification:'Source Code Pro';text-align:center;text-anchor:middle;fill:url(#swatch13);fill-opacity:1;stroke-width:72.0385"
             x="712.1897"
             y="627.47467"
             id="text368"
             inkscape:label="left"
             transform="scale(0.85980767,1.1630508)"><tspan
               sodipodi:role="line"
               id="tspan366"
               x="712.1897"
               y="627.47467"
               style="font-style:normal;font-variant:normal;font-weight:500;font-stretch:normal;font-family:'Source Code Pro';-inkscape-font-specification:'Source Code Pro Medium';fill:url(#swatch13);stroke-width:72.0385">{</tspan></text><text
             xml:space="preserve"
             style="font-style:normal;font-variant:normal;font-weight:normal;font-stretch:normal;font-size:548.864px;font-family:'Source Code Pro';-inkscape-font-specification:'Source Code Pro';text-align:center;text-anchor:middle;display:inline;fill:url(#swatch13);fill-opacity:1;stroke-width:72.0385"
             x="-1401.9337"
             y="627.47467"
             id="text368-52"
             inkscape:label="left"
             transform="scale(-0.85980767,1.1630508)"><tspan
               sodipodi:role="line"
               id="tspan366-27"
               x="-1401.9337"
               y="627.47467"
               style="font-style:normal;font-variant:normal;font-weight:500;font-stretch:normal;font-family:'Source Code Pro';-inkscape-font-specification:'Source Code Pro Medium';fill:url(#swatch13);stroke-width:72.0385">{</tspan></text></g><g
           id="g1761"
           transform="matrix(1.467499,0,0,1.467499,677.50644,128.43317)"
           inkscape:label="unity"
           style="display:none;fill:url(#swatch13)"><path
             class="st0"
             d="M 312.5,346.7 V 220.2 L 203,157 v 48.5 l 42.9,24.9 c 1.7,1.1 1.7,3.4 0,4 L 195,263.8 c -1.4,0.9 -3.1,0.9 -4.5,0 l -50.8,-29.4 c -1.1,-0.5 -1.6,-1.8 -1.1,-2.9 0.2,-0.5 0.6,-0.9 1.1,-1.1 l 42.9,-24.9 V 157 L 72.5,220.2 v 126.5 l 41.8,-24.3 v -49.7 c 0.2,-1.5 1.5,-2.5 3,-2.3 0.1,0 0.3,0 0.4,0.1 l 50.8,29.4 c 1.5,0.8 2.3,2.3 2.3,4 v 58.6 c -0.2,1.5 -1.5,2.5 -3,2.3 -0.1,0 -0.3,0 -0.4,-0.1 L 124.5,339.9 82.7,364.2 192.2,428 301.8,364.8 260,340.5 217.1,365.4 c -1.7,1.1 -3.4,0 -3.4,-2.3 v -58.7 c 0,-1.6 0.9,-3.1 2.3,-4 L 266.8,271 c 1.7,-1.1 3.4,0 3.4,2.3 V 323 Z"
             id="path2"
             style="fill:url(#swatch13)" /><path
             d="M 192.2,428 301.8,364.8 260,340.5 217.1,365.4 c -1.7,1.1 -3.4,0 -3.4,-2.3 v -58.7 c 0,-1.6 0.9,-3.1 2.3,-4 L 266.8,271 c 1.7,-1.1 3.4,0 3.4,2.3 V 323 L 312,347.3 V 220.2 l -119.8,69.5 z"
             id="path3"
             style="fill:url(#swatch13)" /><path
             class="st1"
             d="m 203,157 v 48.5 l 42.9,24.9 c 1.7,1.1 1.7,3.4 0,4 L 195,263.8 c -1.4,0.9 -3.1,0.9 -4.5,0 l -50.8,-29.4 c -1.1,-0.5 -1.6,-1.8 -1.1,-2.9 0.2,-0.5 0.6,-0.9 1.1,-1.1 l 42.9,-24.9 V 157 L 72.5,220.2 192.2,289.7 312,220.2 Z"
             id="path4"
             style="fill:url(#swatch13)" /><path
             class="st0"
             d="M 167.9,365.4 125,340.5 83.2,364.8 192.8,428 V 289.7 L 72.5,220.2 v 126.5 l 41.8,-24.3 v -49.7 c 0.2,-1.5 1.5,-2.5 3,-2.3 0.1,0 0.3,0 0.4,0.1 l 50.8,29.4 c 1.5,0.8 2.3,2.3 2.3,4 v 58.6 c 0.5,2.3 -1.2,4 -2.9,2.9 z"
             id="path5"
             style="fill:url(#swatch13)" /></g><path
           fill="#110b09"
           d="m 1037.5859,645.02598 -57.83072,-97.27586 57.83072,-97.27592 27.8787,97.27592 z M 908.87656,635.5336 836.21486,563.4672 H 951.877 l 57.8303,97.27588 z m 0,-175.86468 100.53634,-25.20947 -57.8303,97.27588 H 835.92044 Z m 147.69094,-72.95608 -131.38178,34.10659 -19.57358,33.51127 -39.4416,-0.29773 -96.38619,93.71709 96.38619,93.71705 39.4416,-0.29772 19.57358,33.51127 131.38178,34.40423 35.2909,-127.82362 -19.8714,-33.21366 19.8714,-33.21686 z"
           id="path1"
           style="fill:url(#swatch13);stroke-width:3.23531"
           sodipodi:nodetypes="cccccccccccccccccccccccccccc" /></g><g
         id="g5209"
         inkscape:label="2.0"
         transform="matrix(1.3476966,0,0,1.3476966,-371.93872,575.5634)"><rect
           style="fill:url(#swatch1);stroke-width:5.91445"
           id="rect5200"
           width="182.7307"
           height="99.440147"
           x="896.9422"
           y="156.54544"
           ry="11.256084" /><text
           xml:space="preserve"
           style="font-style:normal;font-variant:normal;font-weight:bold;font-stretch:normal;font-size:82.2713px;font-family:'DIN Condensed';-inkscape-font-specification:'DIN Condensed,  Bold';text-align:center;letter-spacing:3.30974px;text-anchor:middle;fill:url(#linearGradient1082);fill-opacity:1;stroke-width:9.01468"
           x="989.3208"
           y="233.43956"
           id="text5204"><tspan
             sodipodi:role="line"
             id="tspan5202"
             x="990.97565"
             y="233.43956"
             style="font-style:normal;font-variant:normal;font-weight:bold;font-stretch:normal;font-size:82.2713px;font-family:'DIN Condensed';-inkscape-font-specification:'DIN Condensed,  Bold';letter-spacing:3.30974px;fill:url(#linearGradient1082);stroke-width:9.01468">2.0</tspan></text></g></g></g><style
     type="text/css"
     id="style1">&#10;	.st0{fill:#4C4C4C;}&#10;	.st1{fill:#808080;}&#10;	.st2{fill:none;}&#10;</style></svg>
